<svg width="1405" height="585" viewBox="0 0 1405 585" fill="none" xmlns="http://www.w3.org/2000/svg">
<rect width="1405" height="585" fill="white"/>
<path d="M656.469 268.141H635.562V325H621.5V268.141H600.875V256.75H656.469V268.141ZM678.734 305.828L688.109 274.281H702.641L682.25 332.875L681.125 335.547C678.094 342.172 673.094 345.484 666.125 345.484C664.156 345.484 662.156 345.188 660.125 344.594V334.328L662.188 334.375C664.75 334.375 666.656 333.984 667.906 333.203C669.188 332.422 670.188 331.125 670.906 329.312L672.5 325.141L654.734 274.281H669.312L678.734 305.828ZM753.641 300.109C753.641 307.922 751.859 314.188 748.297 318.906C744.766 323.594 739.984 325.938 733.953 325.938C728.828 325.938 724.688 324.156 721.531 320.594V344.5H707.984V274.281H720.547L721.016 279.25C724.297 275.312 728.578 273.344 733.859 273.344C740.109 273.344 744.969 275.656 748.438 280.281C751.906 284.906 753.641 291.281 753.641 299.406V300.109ZM740.094 299.125C740.094 294.406 739.25 290.766 737.562 288.203C735.906 285.641 733.484 284.359 730.297 284.359C726.047 284.359 723.125 285.984 721.531 289.234V310C723.188 313.344 726.141 315.016 730.391 315.016C736.859 315.016 740.094 309.719 740.094 299.125ZM785.422 325.938C777.984 325.938 771.922 323.656 767.234 319.094C762.578 314.531 760.25 308.453 760.25 300.859V299.547C760.25 294.453 761.234 289.906 763.203 285.906C765.172 281.875 767.953 278.781 771.547 276.625C775.172 274.438 779.297 273.344 783.922 273.344C790.859 273.344 796.312 275.531 800.281 279.906C804.281 284.281 806.281 290.484 806.281 298.516V304.047H773.984C774.422 307.359 775.734 310.016 777.922 312.016C780.141 314.016 782.938 315.016 786.312 315.016C791.531 315.016 795.609 313.125 798.547 309.344L805.203 316.797C803.172 319.672 800.422 321.922 796.953 323.547C793.484 325.141 789.641 325.938 785.422 325.938ZM783.875 284.312C781.188 284.312 779 285.219 777.312 287.031C775.656 288.844 774.594 291.438 774.125 294.812H792.969V293.734C792.906 290.734 792.094 288.422 790.531 286.797C788.969 285.141 786.75 284.312 783.875 284.312ZM860.75 294.578C853.031 292.359 847.406 289.641 843.875 286.422C840.375 283.172 838.625 279.172 838.625 274.422C838.625 269.047 840.766 264.609 845.047 261.109C849.359 257.578 854.953 255.812 861.828 255.812C866.516 255.812 870.688 256.719 874.344 258.531C878.031 260.344 880.875 262.844 882.875 266.031C884.906 269.219 885.922 272.703 885.922 276.484H876.875C876.875 272.359 875.562 269.125 872.938 266.781C870.312 264.406 866.609 263.219 861.828 263.219C857.391 263.219 853.922 264.203 851.422 266.172C848.953 268.109 847.719 270.812 847.719 274.281C847.719 277.062 848.891 279.422 851.234 281.359C853.609 283.266 857.625 285.016 863.281 286.609C868.969 288.203 873.406 289.969 876.594 291.906C879.812 293.812 882.188 296.047 883.719 298.609C885.281 301.172 886.062 304.188 886.062 307.656C886.062 313.188 883.906 317.625 879.594 320.969C875.281 324.281 869.516 325.938 862.297 325.938C857.609 325.938 853.234 325.047 849.172 323.266C845.109 321.453 841.969 318.984 839.75 315.859C837.562 312.734 836.469 309.188 836.469 305.219H845.516C845.516 309.344 847.031 312.609 850.062 315.016C853.125 317.391 857.203 318.578 862.297 318.578C867.047 318.578 870.688 317.609 873.219 315.672C875.75 313.734 877.016 311.094 877.016 307.75C877.016 304.406 875.844 301.828 873.5 300.016C871.156 298.172 866.906 296.359 860.75 294.578ZM916.625 318.859C919.719 318.859 922.422 317.922 924.734 316.047C927.047 314.172 928.328 311.828 928.578 309.016H936.781C936.625 311.922 935.625 314.688 933.781 317.312C931.938 319.938 929.469 322.031 926.375 323.594C923.312 325.156 920.062 325.938 916.625 325.938C909.719 325.938 904.219 323.641 900.125 319.047C896.062 314.422 894.031 308.109 894.031 300.109V298.656C894.031 293.719 894.938 289.328 896.75 285.484C898.562 281.641 901.156 278.656 904.531 276.531C907.938 274.406 911.953 273.344 916.578 273.344C922.266 273.344 926.984 275.047 930.734 278.453C934.516 281.859 936.531 286.281 936.781 291.719H928.578C928.328 288.438 927.078 285.75 924.828 283.656C922.609 281.531 919.859 280.469 916.578 280.469C912.172 280.469 908.75 282.062 906.312 285.25C903.906 288.406 902.703 292.984 902.703 298.984V300.625C902.703 306.469 903.906 310.969 906.312 314.125C908.719 317.281 912.156 318.859 916.625 318.859ZM971.047 282.062C969.734 281.844 968.312 281.734 966.781 281.734C961.094 281.734 957.234 284.156 955.203 289V325H946.531V274.281H954.969L955.109 280.141C957.953 275.609 961.984 273.344 967.203 273.344C968.891 273.344 970.172 273.562 971.047 274V282.062ZM988.484 325H979.812V274.281H988.484V325ZM979.109 260.828C979.109 259.422 979.531 258.234 980.375 257.266C981.25 256.297 982.531 255.812 984.219 255.812C985.906 255.812 987.188 256.297 988.062 257.266C988.938 258.234 989.375 259.422 989.375 260.828C989.375 262.234 988.938 263.406 988.062 264.344C987.188 265.281 985.906 265.75 984.219 265.75C982.531 265.75 981.25 265.281 980.375 264.344C979.531 263.406 979.109 262.234 979.109 260.828ZM1045.25 300.203C1045.25 307.922 1043.48 314.141 1039.95 318.859C1036.42 323.578 1031.64 325.938 1025.61 325.938C1019.45 325.938 1014.61 323.984 1011.08 320.078V344.5H1002.41V274.281H1010.33L1010.75 279.906C1014.28 275.531 1019.19 273.344 1025.47 273.344C1031.56 273.344 1036.38 275.641 1039.91 280.234C1043.47 284.828 1045.25 291.219 1045.25 299.406V300.203ZM1036.58 299.219C1036.58 293.5 1035.36 288.984 1032.92 285.672C1030.48 282.359 1027.14 280.703 1022.89 280.703C1017.64 280.703 1013.7 283.031 1011.08 287.688V311.922C1013.67 316.547 1017.64 318.859 1022.98 318.859C1027.14 318.859 1030.44 317.219 1032.88 313.938C1035.34 310.625 1036.58 305.719 1036.58 299.219ZM1068.08 262V274.281H1077.55V280.984H1068.08V312.438C1068.08 314.469 1068.5 316 1069.34 317.031C1070.19 318.031 1071.62 318.531 1073.66 318.531C1074.66 318.531 1076.03 318.344 1077.78 317.969V325C1075.5 325.625 1073.28 325.938 1071.12 325.938C1067.25 325.938 1064.33 324.766 1062.36 322.422C1060.39 320.078 1059.41 316.75 1059.41 312.438V280.984H1050.17V274.281H1059.41V262H1068.08Z" fill="black"/>
<rect x="323" y="173" width="240" height="240" fill="#3178C6"/>
<path d="M441.102 258.68H410.375V342H385.695V258.68H355.531V239.625H441.102V258.68ZM503.258 314.789C503.258 311.18 501.969 308.367 499.391 306.352C496.859 304.336 492.383 302.25 485.961 300.094C479.539 297.938 474.289 295.852 470.211 293.836C456.945 287.32 450.312 278.367 450.312 266.977C450.312 261.305 451.953 256.312 455.234 252C458.562 247.641 463.25 244.266 469.297 241.875C475.344 239.438 482.141 238.219 489.688 238.219C497.047 238.219 503.633 239.531 509.445 242.156C515.305 244.781 519.852 248.531 523.086 253.406C526.32 258.234 527.938 263.766 527.938 270H503.328C503.328 265.828 502.039 262.594 499.461 260.297C496.93 258 493.484 256.852 489.125 256.852C484.719 256.852 481.227 257.836 478.648 259.805C476.117 261.727 474.852 264.188 474.852 267.188C474.852 269.812 476.258 272.203 479.07 274.359C481.883 276.469 486.828 278.672 493.906 280.969C500.984 283.219 506.797 285.656 511.344 288.281C522.406 294.656 527.938 303.445 527.938 314.648C527.938 323.602 524.562 330.633 517.812 335.742C511.062 340.852 501.805 343.406 490.039 343.406C481.742 343.406 474.219 341.93 467.469 338.977C460.766 335.977 455.703 331.898 452.281 326.742C448.906 321.539 447.219 315.562 447.219 308.812H471.969C471.969 314.297 473.375 318.352 476.188 320.977C479.047 323.555 483.664 324.844 490.039 324.844C494.117 324.844 497.328 323.977 499.672 322.242C502.062 320.461 503.258 317.977 503.258 314.789Z" fill="white"/>
</svg>
